<?xml version="1.0" encoding="UTF-8"?>
<svg id="Layer_2" viewBox="0 0 543.64 205.11">
  <defs>
    <style>
      .cls-1{fill:#222}.cls-2{fill:#231f20}
    </style>
  </defs>
  <g id="logo-black">
    <path class="cls-1" d="M35.08 142.38c-1.18 6.03-2.43 11.99-3.74 17.88-1.32 5.89-1.98 11.13-1.98 15.7 0 7.07 1.84 12.3 5.51 15.7 3.67 3.4 9.39 5.09 17.16 5.09 2.08 0 4.12-.04 6.13-.1 2.01-.07 3.29-.18 3.85-.31v6.24c-1.94.14-3.74.24-5.41.31-1.66.07-3.12.1-4.37.1-10.26 0-17.82-2.18-22.67-6.55-4.85-4.37-7.28-11.2-7.28-20.48 0-5.13.62-10.57 1.87-16.32s2.5-11.54 3.74-17.36c1.25-5.82 1.87-11.3 1.87-16.43 0-6.65-1.84-11.57-5.51-14.76-3.67-3.19-9.39-4.78-17.16-4.78H2.12v-7.28h4.99c7.76 0 13.48-1.63 17.16-4.89 3.67-3.26 5.51-8.21 5.51-14.87 0-5.27-.62-10.78-1.87-16.53-1.25-5.75-2.5-11.51-3.74-17.26-1.25-5.75-1.87-11.19-1.87-16.32 0-9.15 2.42-15.94 7.28-20.38 4.85-4.43 12.41-6.65 22.67-6.65 1.25 0 2.7.04 4.37.1 1.66.07 3.46.18 5.41.31v6.24c-.56-.14-1.84-.21-3.85-.21h-6.13c-7.77 0-13.48 1.66-17.16 4.99-3.67 3.33-5.51 8.53-5.51 15.6 0 4.57.66 9.81 1.98 15.7a782.95 782.95 0 0 1 3.74 17.68c1.18 5.89 1.77 11.2 1.77 15.91 0 7.9-2.08 13.97-6.24 18.2-4.16 4.23-10.33 6.48-18.51 6.76v-1.66c8.04.28 14.17 2.53 18.4 6.76 4.23 4.23 6.34 10.29 6.34 18.2 0 4.44-.59 9.67-1.77 15.7Z"/>
    <path class="cls-2" d="M52.23 205.11c-10.75 0-18.85-2.39-24.08-7.09-5.29-4.76-7.98-12.18-7.98-22.06 0-5.26.65-10.9 1.92-16.77 1.25-5.75 2.49-11.54 3.74-17.36 1.21-5.65 1.82-11.02 1.82-15.98 0-5.98-1.61-10.41-4.78-13.17-3.26-2.83-8.57-4.26-15.77-4.26H0V96.91h7.11c7.2 0 12.49-1.47 15.75-4.35 3.18-2.82 4.8-7.29 4.8-13.28 0-5.1-.61-10.51-1.82-16.08L22.1 45.94c-1.27-5.87-1.92-11.51-1.92-16.77 0-9.72 2.68-17.11 7.96-21.94C33.37 2.43 41.48 0 52.23 0c1.27 0 2.76.04 4.45.11 1.69.07 3.5.18 5.47.32l1.97.14v10.91l-2.62-.64c-.06-.02-.68-.15-3.34-.15h-6.13c-7.19 0-12.48 1.49-15.73 4.44-3.19 2.89-4.82 7.61-4.82 14.03 0 4.41.65 9.53 1.93 15.24 1.32 5.94 2.59 11.9 3.75 17.72 1.2 6.02 1.81 11.51 1.81 16.32 0 8.44-2.3 15.06-6.85 19.68-1.8 1.83-3.93 3.32-6.4 4.48 2.4 1.14 4.5 2.61 6.29 4.4 4.62 4.63 6.96 11.25 6.96 19.69 0 4.54-.61 9.96-1.81 16.1a720.3 720.3 0 0 1-3.75 17.94c-1.28 5.71-1.93 10.84-1.93 15.24 0 6.42 1.63 11.18 4.83 14.14 3.25 3.01 8.54 4.53 15.72 4.53 2.02 0 4.06-.03 6.06-.1 2.6-.09 3.27-.22 3.42-.25l2.62-.64v10.91l-1.97.14c-1.96.14-3.78.24-5.46.32-1.7.07-3.19.1-4.46.1Zm-35.69-99.96c3.73.87 6.78 2.31 9.11 4.33 4.14 3.6 6.24 9.1 6.24 16.36 0 5.26-.65 10.93-1.92 16.87-1.25 5.82-2.5 11.62-3.74 17.37-1.21 5.58-1.82 10.92-1.82 15.87 0 8.62 2.21 14.98 6.58 18.91 4.43 3.99 11.58 6.01 21.25 6.01 1.22 0 2.65-.04 4.28-.1 1.07-.05 2.19-.1 3.38-.18v-1.9c-.46.03-1.01.05-1.65.08-2.05.07-4.14.11-6.21.11-8.28 0-14.53-1.9-18.59-5.66-4.11-3.8-6.19-9.6-6.19-17.25 0-4.71.68-10.15 2.03-16.16 1.31-5.87 2.57-11.87 3.73-17.83 1.15-5.88 1.73-11.03 1.73-15.29 0-7.28-1.93-12.9-5.72-16.7-2.51-2.51-5.85-4.27-9.96-5.24-.81.16-1.64.3-2.5.41Zm-12.31-.97H7.1c.99 0 1.95.03 2.87.08v-3.2c-.93.05-1.89.08-2.87.08H4.23v3.04ZM17 100.04c.7.1 1.38.22 2.05.36 4.19-.97 7.56-2.73 10.04-5.26 3.74-3.8 5.63-9.42 5.63-16.71 0-4.54-.58-9.75-1.73-15.49-1.16-5.79-2.42-11.72-3.73-17.63-1.35-6-2.03-11.44-2.03-16.16 0-7.66 2.09-13.44 6.21-17.17 4.05-3.67 10.31-5.54 18.58-5.54h6.13c.68 0 1.25 0 1.73.02V4.51c-1.19-.07-2.31-.13-3.38-.18-1.62-.07-3.05-.1-4.28-.1-9.67 0-16.81 2.05-21.24 6.1-4.37 4-6.59 10.33-6.59 18.82 0 4.96.61 10.3 1.82 15.87l3.74 17.26c1.27 5.87 1.92 11.58 1.92 16.98 0 7.26-2.09 12.79-6.22 16.45-2.23 1.98-5.13 3.42-8.66 4.32Z"/>
    <path class="cls-1" d="M84.96 37.72h8.17l61.93 102.8h-3.27l62.12-102.8h7.63v138.03h-7.26V42.81l3.81.18-61.57 101.53h-6.54L88.41 42.81h3.81v132.95h-7.26V37.72Zm233.03 100.44c0 13.32-3.12 23.28-9.35 29.88-6.24 6.6-15.65 9.9-28.24 9.9-5.09 0-9.99-.58-14.71-1.72a61.912 61.912 0 0 1-13.8-5.18l1.09-6.54c3.87 2.18 8.17 3.88 12.9 5.09a57.55 57.55 0 0 0 14.35 1.82c10.41 0 18.1-2.69 23.07-8.08 4.96-5.39 7.45-13.77 7.45-25.16V37.72h7.27v100.44Zm39.23-100.44h7.27v138.03h-7.27V37.72Zm4.72 66.47 82.46-66.47h10.53l-85.36 68.11.18-4 92.45 73.92h-10.9l-89.36-71.56Zm146.73 38.29c-1.25-5.96-1.87-11.23-1.87-15.8 0-7.9 2.08-13.96 6.24-18.2 4.16-4.23 10.33-6.41 18.51-6.55v1.46c-8.04-.28-14.18-2.53-18.4-6.76-4.23-4.23-6.34-10.22-6.34-17.99 0-4.71.62-10.05 1.87-16.01 1.25-5.96 2.5-11.89 3.74-17.78 1.25-5.89 1.87-11.05 1.87-15.49 0-7.21-1.84-12.48-5.51-15.8-3.67-3.33-9.39-4.99-17.16-4.99h-5.93c-2.01 0-3.36.07-4.06.21V2.53c1.94-.14 3.74-.24 5.41-.31 1.66-.07 3.12-.1 4.37-.1 10.4 0 17.99 2.22 22.77 6.65 4.78 4.44 7.17 11.3 7.17 20.59 0 4.99-.59 10.4-1.77 16.22-1.18 5.82-2.43 11.61-3.74 17.36-1.32 5.75-1.98 11.2-1.98 16.32 0 6.79 1.87 11.78 5.61 14.97 3.74 3.19 9.43 4.78 17.05 4.78h4.99v7.28h-4.99c-7.63 0-13.31 1.6-17.05 4.78-3.74 3.19-5.61 8.18-5.61 14.97 0 5.13.66 10.57 1.98 16.32 1.32 5.75 2.56 11.51 3.74 17.26 1.18 5.75 1.77 11.2 1.77 16.32 0 9.29-2.39 16.12-7.17 20.48-4.78 4.37-12.37 6.55-22.77 6.55-1.25 0-2.7-.04-4.37-.1-1.66-.07-3.47-.18-5.41-.31v-6.24c.69.14 2.04.24 4.06.31 2.01.07 3.98.1 5.93.1 7.76 0 13.48-1.7 17.16-5.09 3.67-3.4 5.51-8.56 5.51-15.49 0-4.71-.62-10.01-1.87-15.91-1.25-5.89-2.5-11.82-3.74-17.78Z"/>
    <path class="cls-2" d="M491.41 205.11a130 130 0 0 1-4.45-.1c-1.69-.07-3.51-.18-5.47-.32l-1.97-.14v-10.79l2.53.5c.32.06 1.24.18 3.72.27 2 .07 3.97.1 5.85.1 7.18 0 12.46-1.53 15.72-4.53 3.2-2.97 4.83-7.66 4.83-13.94 0-4.54-.61-9.75-1.83-15.47-1.25-5.89-2.5-11.82-3.74-17.78-1.27-6.08-1.92-11.54-1.92-16.24 0-8.44 2.3-15.06 6.84-19.68 1.81-1.83 3.96-3.32 6.44-4.46-2.42-1.15-4.53-2.62-6.32-4.41-4.62-4.62-6.96-11.17-6.96-19.48 0-4.83.65-10.37 1.92-16.45 1.25-5.96 2.5-11.89 3.74-17.78 1.21-5.72 1.83-10.78 1.83-15.05 0-6.55-1.62-11.34-4.82-14.24-3.26-2.95-8.55-4.44-15.73-4.44h-5.93c-2.52 0-3.39.12-3.65.17l-2.53.5V.56l1.97-.14c1.96-.14 3.78-.24 5.46-.32 1.7-.07 3.19-.11 4.46-.11 10.9 0 19.04 2.43 24.21 7.22 5.21 4.83 7.85 12.28 7.85 22.14 0 5.1-.61 10.7-1.81 16.64a720.98 720.98 0 0 1-3.76 17.42c-1.27 5.56-1.92 10.89-1.92 15.85 0 6.11 1.64 10.61 4.87 13.36 3.33 2.84 8.6 4.28 15.68 4.28h7.11v11.51h-7.11c-7.07 0-12.34 1.44-15.68 4.28-3.23 2.76-4.87 7.25-4.87 13.36 0 4.96.65 10.29 1.92 15.85 1.31 5.72 2.57 11.54 3.75 17.31 1.2 5.88 1.81 11.51 1.81 16.75 0 9.87-2.65 17.28-7.87 22.05-5.16 4.71-13.3 7.1-24.2 7.1Zm-7.66-4.52c1.19.07 2.31.13 3.38.18 1.63.07 3.05.1 4.28.1 9.8 0 16.99-2.02 21.34-6 4.3-3.93 6.49-10.29 6.49-18.92 0-4.95-.58-10.3-1.73-15.9-1.18-5.74-2.43-11.53-3.73-17.21-1.35-5.87-2.03-11.52-2.03-16.8 0-7.41 2.14-12.99 6.36-16.58 2.36-2.01 5.4-3.45 9.09-4.32-.82-.11-1.61-.24-2.39-.4-4.3.9-7.74 2.64-10.26 5.21-3.74 3.8-5.63 9.42-5.63 16.71 0 4.41.61 9.58 1.83 15.37 1.25 5.96 2.5 11.89 3.74 17.78 1.27 6.01 1.92 11.51 1.92 16.35 0 7.51-2.08 13.24-6.19 17.04-4.07 3.76-10.32 5.66-18.6 5.66-1.93 0-3.95-.04-6-.11-.74-.03-1.35-.06-1.86-.09v1.91Zm49.91-99.54v3.2c.93-.05 1.89-.08 2.87-.08h2.87v-3.04h-2.87c-.99 0-1.94-.03-2.87-.08Zm-47.97-94.6h5.93c8.27 0 14.52 1.86 18.58 5.54 4.12 3.74 6.21 9.58 6.21 17.37 0 4.56-.65 9.92-1.92 15.93-1.25 5.89-2.5 11.82-3.74 17.78-1.21 5.79-1.83 11.03-1.83 15.58 0 7.15 1.93 12.69 5.72 16.49 2.56 2.56 5.98 4.34 10.21 5.3.7-.13 1.41-.23 2.14-.32-3.6-.87-6.57-2.3-8.88-4.27-4.22-3.59-6.36-9.17-6.36-16.58 0-5.27.68-10.93 2.03-16.8 1.3-5.67 2.55-11.5 3.73-17.31 1.15-5.67 1.73-10.98 1.73-15.8 0-8.63-2.19-15.03-6.5-19.03-4.36-4.04-11.53-6.09-21.33-6.09-1.22 0-2.65.04-4.28.1-1.07.05-2.19.1-3.38.18v1.96c.53-.02 1.17-.03 1.94-.03Z"/>
  </g>
</svg>
