<svg xmlns="http://www.w3.org/2000/svg" width="27" height="27" viewBox="0 0 27 27"><defs><style>.a{fill:#101820;}</style></defs><path class="a" d="M18.618,93.5l7.676-7.676a2.413,2.413,0,0,0,0-3.412l-1.706-1.706a2.413,2.413,0,0,0-3.412,0L13.5,88.382,5.824,80.706a2.413,2.413,0,0,0-3.412,0L.706,82.412a2.413,2.413,0,0,0,0,3.412L8.382,93.5.706,101.176a2.413,2.413,0,0,0,0,3.412l1.706,1.706a2.413,2.413,0,0,0,3.412,0L13.5,98.618l7.676,7.676a2.413,2.413,0,0,0,3.412,0l1.706-1.706a2.413,2.413,0,0,0,0-3.412Z" transform="translate(0 -80)"/></svg>