<?xml version="1.0" encoding="UTF-8"?><svg id="logo-white" xmlns="http://www.w3.org/2000/svg" viewBox="0 0 1340 467.12"><defs><style>.cls-1{fill:#222;}</style></defs><path class="cls-1" d="m110.06,310.42c-2.45,11.64-5.05,23.15-7.79,34.52-2.74,11.38-4.11,21.47-4.11,30.3,0,13.65,3.82,23.74,11.46,30.3,7.64,6.55,19.53,9.83,35.69,9.83,4.33,0,8.58-.07,12.76-.2,4.18-.14,6.85-.34,8-.6v12.04c-4.04.26-7.79.46-11.25.6-3.46.13-6.49.2-9.08.2-21.34,0-37.06-4.21-47.15-12.64-10.1-8.43-15.14-21.61-15.14-39.53,0-9.9,1.3-20.4,3.89-31.51,2.6-11.1,5.19-22.28,7.79-33.51,2.6-11.24,3.89-21.81,3.89-31.71,0-12.84-3.83-22.34-11.46-28.5-7.64-6.15-19.54-9.23-35.69-9.23h-10.38v-14.05h10.38c16.15,0,28.04-3.14,35.69-9.43,7.64-6.28,11.46-15.85,11.46-28.7,0-10.17-1.3-20.8-3.89-31.91-2.6-11.1-5.19-22.21-7.79-33.31-2.6-11.1-3.89-21.6-3.89-31.51,0-17.66,5.04-30.77,15.14-39.33,10.09-8.56,25.8-12.84,47.15-12.84,2.6,0,5.62.07,9.08.2,3.46.14,7.2.34,11.25.6v12.04c-1.16-.26-3.83-.4-8-.4h-12.76c-16.15,0-28.05,3.21-35.69,9.63-7.64,6.42-11.46,16.46-11.46,30.1,0,8.83,1.37,18.93,4.11,30.3,2.74,11.38,5.33,22.75,7.79,34.12,2.45,11.38,3.68,21.61,3.68,30.7,0,15.25-4.33,26.96-12.98,35.12-8.65,8.17-21.49,12.51-38.5,13.04v-3.21c16.72.54,29.48,4.89,38.28,13.04,8.79,8.17,13.19,19.87,13.19,35.12,0,8.57-1.23,18.66-3.68,30.3Z"/><path class="cls-1" d="m241.33,64.19h19.47l147.5,227.17h-7.79l147.94-227.17h18.17v305.04h-17.3V75.42l9.08.4-146.64,224.36h-15.57L249.55,75.42h9.08v293.8h-17.3V64.19Z"/><path class="cls-1" d="m796.31,286.14c0,29.44-7.43,51.44-22.28,66.02-14.86,14.59-37.27,21.87-67.26,21.87-12.11,0-23.79-1.27-35.04-3.81s-22.21-6.35-32.87-11.44l2.6-14.45c9.23,4.82,19.47,8.57,30.71,11.24,11.25,2.68,22.64,4.01,34.17,4.01,24.8,0,43.11-5.95,54.94-17.86,11.82-11.9,17.74-30.44,17.74-55.59V64.19h17.3v221.96Z"/><path class="cls-1" d="m889.74,64.19h17.3v305.04h-17.3V64.19Zm11.25,146.9l196.38-146.9h25.09l-203.3,150.51.43-8.83,220.17,163.36h-25.95l-212.82-158.14Z"/><path class="cls-1" d="m1230.16,310.62c-2.6-11.5-3.89-21.67-3.89-30.5,0-15.25,4.33-26.95,12.98-35.12,8.65-8.16,21.48-12.37,38.5-12.64v2.81c-16.73-.53-29.49-4.88-38.28-13.04-8.8-8.16-13.19-19.73-13.19-34.72,0-9.09,1.3-19.4,3.89-30.91,2.6-11.5,5.19-22.94,7.79-34.32,2.6-11.37,3.89-21.34,3.89-29.9,0-13.91-3.83-24.08-11.46-30.5-7.64-6.42-19.54-9.63-35.69-9.63h-12.33c-4.18,0-7,.14-8.44.4v-12.04c4.04-.26,7.79-.46,11.25-.6,3.46-.13,6.49-.2,9.08-.2,21.63,0,37.42,4.28,47.37,12.84,9.95,8.57,14.92,21.81,14.92,39.74,0,9.63-1.23,20.07-3.68,31.31-2.45,11.24-5.05,22.41-7.79,33.51-2.74,11.11-4.11,21.61-4.11,31.51,0,13.11,3.89,22.75,11.68,28.9,7.79,6.16,19.61,9.23,35.47,9.23h10.38v14.05h-10.38c-15.86,0-27.68,3.08-35.47,9.23-7.79,6.16-11.68,15.79-11.68,28.9,0,9.9,1.37,20.41,4.11,31.51,2.74,11.11,5.33,22.21,7.79,33.31,2.45,11.11,3.68,21.61,3.68,31.51,0,17.92-4.97,31.11-14.92,39.53-9.95,8.43-25.74,12.64-47.37,12.64-2.6,0-5.62-.07-9.08-.2-3.46-.14-7.21-.34-11.25-.6v-12.04c1.44.26,4.25.46,8.44.6,4.18.13,8.29.2,12.33.2,16.15,0,28.04-3.28,35.69-9.83,7.64-6.56,11.46-16.52,11.46-29.9,0-9.09-1.3-19.33-3.89-30.7-2.6-11.37-5.19-22.81-7.79-34.32Z"/></svg>